<?xml version="1.0" encoding="UTF-8"?>
<svg xmlns="http://www.w3.org/2000/svg" width="68" height="68" viewBox="0 0 68 68" fill="none">
  <path d="M37.2224 67.9162C37.6603 67.1967 38.1175 66.4821 38.5434 65.7459C40.4058 62.5169 41.6401 59.0449 42.4967 55.4285C42.5785 55.0796 42.4414 54.839 42.1671 54.6658C39.6502 53.0922 37.1911 51.4344 34.7537 49.7453C34.3784 49.4854 34.0559 49.5023 33.6709 49.7621C31.2648 51.3839 28.849 52.9887 26.426 54.584C26.0434 54.8366 25.8654 55.1181 25.9809 55.5801C26.9385 59.4804 28.2932 63.2195 30.425 66.6482C30.6873 67.0692 30.964 67.4831 31.2913 67.9859C30.3408 68.0124 29.4818 67.8608 28.6373 67.7165C20.3096 66.2896 13.3606 62.3942 7.9179 55.9145C3.59163 50.7703 1.01464 44.8272 0.249487 38.1407C-0.739442 29.5076 1.20473 21.5699 6.20471 14.4598C11.0483 7.57599 17.5738 2.91537 25.7691 1.04583C39.169 -2.01473 50.6439 1.65217 59.8306 11.9142C64.3903 17.0103 67.0395 23.1146 67.7661 29.9383C69.0318 41.8292 65.153 51.7977 56.3104 59.8365C56.0217 60.0987 55.8316 60.2239 55.4226 59.9472C54.5515 59.3553 53.6131 58.8644 52.7036 58.3327C52.1911 58.0319 51.7339 58.0608 51.296 58.5011C50.8846 58.9149 50.7065 59.3312 51.0434 59.8846C51.5102 60.6521 51.9385 61.4438 52.3956 62.2185C52.5592 62.4976 52.5857 62.6661 52.2513 62.8802C47.7638 65.729 42.8697 67.394 37.5978 67.9835C37.4847 67.9956 37.362 68.0365 37.2272 67.9162H37.2224ZM43.2739 37.159C43.2619 37.0267 43.2619 36.9256 43.245 36.8269C42.8649 34.3583 42.3403 31.9209 41.5727 29.5413C40.1507 25.1381 38.1464 21.067 34.9125 17.684C34.3687 17.1162 34.1377 17.1017 33.5867 17.6479C31.7869 19.4357 30.4154 21.529 29.2436 23.7642C27.8192 26.4879 26.8375 29.3728 26.0651 32.342C25.9183 32.905 26.0194 33.2996 26.4356 33.6798C27.0564 34.2452 27.6772 34.8154 28.2547 35.4242C28.671 35.8621 29.0463 35.8573 29.5155 35.5349C30.7378 34.7 31.9746 33.8867 33.2066 33.0662C34.1498 32.4358 34.2797 32.4334 35.2373 33.0686C37.5449 34.5989 39.8548 36.1292 42.155 37.6715C42.4149 37.8447 42.6555 37.9097 42.937 37.7798C43.2137 37.6522 43.2667 37.402 43.2739 37.1614V37.159ZM24.7586 44.5674C24.708 47.012 24.9005 49.4421 25.259 51.8579C25.401 52.8179 25.6296 52.9069 26.4597 52.3583C28.7768 50.828 31.0916 49.2954 33.4087 47.7651C34.1426 47.279 34.3471 47.2839 35.081 47.7771C36.053 48.4292 37.0251 49.086 37.9996 49.7333C39.412 50.6716 40.8292 51.6052 42.2465 52.5364C42.4943 52.6976 42.7686 52.8179 42.9852 52.5171C43.2065 52.2116 42.8649 52.0937 42.7205 51.9493C41.8976 51.1312 41.0602 50.33 40.2253 49.5239C36.515 45.9388 32.7999 42.3586 29.0968 38.7639C28.7576 38.4342 28.4592 38.427 28.0911 38.6748C27.1286 39.3197 26.1589 39.9549 25.1869 40.5853C24.8909 40.7778 24.7537 41.0304 24.7562 41.3841C24.7634 42.4452 24.7586 43.5039 24.7586 44.565V44.5674ZM43.7166 44.3388C43.7166 43.4582 43.7142 42.5775 43.7166 41.6945C43.719 41.1339 43.5265 40.708 43.0044 40.4193C42.5015 40.1426 42.042 39.7889 41.5631 39.4688C39.3832 38.0107 37.2008 36.5623 35.0304 35.0921C34.4674 34.712 33.9958 34.6542 33.4207 35.1042C32.7133 35.6576 31.9313 36.1147 31.1854 36.6152C30.3577 37.1686 30.3288 37.3779 31.0482 38.0781C34.7513 41.6728 38.4616 45.2627 42.1671 48.8574C42.4414 49.1245 42.7133 49.459 43.1367 49.317C43.6035 49.1582 43.5675 48.689 43.5963 48.2968C43.6974 46.9783 43.772 45.6597 43.7166 44.3364V44.3388ZM19.4939 33.9637C18.9453 33.9781 18.683 34.3198 18.5314 34.7986C17.5088 38.03 16.8351 41.3215 16.6691 44.7214C16.4694 48.8045 16.9626 52.7914 18.1801 56.6845C18.813 58.7104 19.6527 60.6522 20.6946 62.5048C20.9496 62.9572 21.2576 63.2892 21.8351 63.128C22.4631 62.9524 22.6556 62.3605 22.2923 61.6771C20.7018 58.6936 19.5324 55.5632 18.9501 52.2212C18.1657 47.7266 18.3077 43.2609 19.311 38.8144C19.5925 37.5656 20.0208 36.365 20.3264 35.1258C20.4876 34.4762 20.0858 33.9565 19.4915 33.9637H19.4939ZM51.823 38.3115C51.823 36.1075 51.616 33.9204 51.1829 31.7549C50.5188 28.4393 49.3711 25.2993 47.7349 22.3422C47.3932 21.7263 46.8928 21.5554 46.3995 21.8321C45.9375 22.092 45.8316 22.6646 46.1589 23.2565C48.2017 26.9667 49.4288 30.932 49.8403 35.1475C50.1916 38.7374 49.9702 42.2912 49.1906 45.8185C48.9019 47.1251 48.5001 48.3979 48.1319 49.6803C48.0092 50.1134 48.0814 50.4743 48.4519 50.7438C49.0246 51.1601 49.6767 50.8521 49.9389 50.034C51.1613 46.2228 51.8639 42.3273 51.8254 38.3115H51.823ZM58.2233 38.6002C58.2065 38.3211 58.1776 38.042 58.1752 37.7629C58.1295 33.5282 56.9433 29.6086 54.9437 25.9081C54.6261 25.321 54.1521 25.1213 53.6661 25.3619C53.1752 25.6025 53.0381 26.1415 53.334 26.7526C53.5867 27.2723 53.885 27.7704 54.1232 28.2973C56.6617 33.8987 57.078 39.6493 55.3143 45.5491C55.2469 45.7776 55.194 46.011 55.1362 46.2444C54.987 46.8435 55.1988 47.2911 55.7041 47.4427C56.2022 47.5918 56.6714 47.3416 56.8566 46.781C57.7421 44.1271 58.1848 41.4009 58.2257 38.6026L58.2233 38.6002ZM10.2374 46.728C10.2374 47.83 10.3361 48.9248 10.4877 50.0148C10.8847 52.8708 11.7557 55.5753 13.0767 58.1378C13.416 58.797 13.8779 59.0786 14.3688 58.8476C14.9078 58.5973 15.0521 58.1137 14.7321 57.428C14.0993 56.0709 13.493 54.7019 13.0671 53.263C12.3043 50.6909 11.9675 48.0707 12.0998 45.3879C12.1744 43.8672 12.3765 42.3682 12.7061 40.8836C12.7735 40.5757 12.824 40.246 12.6267 39.9525C12.403 39.6228 12.0854 39.4857 11.7004 39.5458C11.2071 39.6228 11.0339 40.0054 10.9376 40.4337C10.4708 42.5053 10.223 44.6035 10.2374 46.728ZM6.80866 23.0857C6.99153 23.1314 7.21049 22.9028 7.42945 22.6983C7.97083 22.1955 8.49297 21.6709 9.03676 21.1705C9.72251 20.5401 10.2254 20.5401 10.9136 21.1753C11.3539 21.5819 11.7509 22.0366 12.196 22.4385C12.6676 22.8619 13.1537 22.8475 13.5242 22.4529C13.914 22.0391 13.9116 21.6084 13.4713 21.1295C13.12 20.7494 12.7206 20.4125 12.3524 20.0444C11.5295 19.2191 11.5536 18.6874 12.4126 17.8813C12.9083 17.4169 13.4015 16.9453 13.8635 16.4497C14.2749 16.0094 14.2244 15.391 13.7697 15.0926C13.2956 14.7847 12.8746 14.8977 12.48 15.2827C11.4357 16.3029 10.3794 17.3063 9.33031 18.3216C8.24032 19.3803 7.15755 20.4462 6.06516 21.5025C5.77401 21.784 5.67055 22.1209 5.81732 22.4842C5.95929 22.8331 6.24081 23.0544 6.80625 23.0833L6.80866 23.0857ZM19.7393 26.9595C19.7345 26.755 19.6695 26.5842 19.542 26.4518C18.517 25.4148 17.4992 24.3706 16.4477 23.3576C16.094 23.0159 15.6489 23.0183 15.2567 23.3576C15.0762 23.514 14.9054 23.6848 14.7393 23.8557C14.1691 24.4452 14.1691 24.8614 14.7466 25.4461C15.6031 26.3123 16.4694 27.1713 17.3284 28.0351C17.6436 28.3527 17.9804 28.7473 18.452 28.4441C19.0127 28.0832 19.5468 27.6501 19.7417 26.9571L19.7393 26.9595ZM44.8283 53.2173C44.7705 53.7683 45.0015 54.11 45.3119 54.4107C46.349 55.4117 47.3836 56.4126 48.4255 57.4087C48.9356 57.8948 49.3398 57.9092 49.7609 57.4761C50.2036 57.0213 50.1892 56.6412 49.6791 56.1431C48.5193 55.0098 47.3595 53.879 46.1781 52.7698C45.8966 52.5051 45.6969 51.9397 45.1892 52.1706C44.7489 52.3728 44.9317 52.9189 44.8283 53.2197V53.2173ZM24.299 31.8078C24.2918 31.5672 24.1209 31.3819 23.926 31.1991C23.1416 30.458 22.3428 29.729 21.5921 28.9542C21.1373 28.485 20.8437 28.7136 20.4997 29.0625C19.9222 29.6495 19.8789 29.8108 20.3048 30.239C21.0964 31.0331 21.8832 31.8319 22.7085 32.5874C23.0093 32.8617 23.2379 33.4416 23.7528 33.237C24.2653 33.0325 24.1089 32.4069 24.2701 31.9762C24.2845 31.9402 24.2821 31.8968 24.2942 31.8102L24.299 31.8078ZM25.1243 37.3659C25.1147 37.6306 25.1147 37.8616 25.3384 37.9891C25.555 38.1118 25.7595 38.0348 25.952 37.9073C26.1998 37.7413 26.4525 37.5825 26.6955 37.4068C26.965 37.2119 27.107 36.9833 26.888 36.6513C26.5006 36.069 25.851 35.6239 25.5766 35.7803C25.413 35.8741 25.3384 36.0474 25.3072 36.2278C25.2374 36.62 25.182 37.0122 25.1267 37.3659H25.1243Z" fill="#303030"></path>
</svg>
