<?xml version="1.0" encoding="UTF-8"?>
<svg xmlns="http://www.w3.org/2000/svg" width="68" height="68" viewBox="0 0 68 68" fill="none">
  <path d="M34.0149 0C52.7007 0.0631897 68.0079 15.0056 68 34.0197C67.9921 52.872 52.894 68.0039 33.9853 68C14.9583 67.996 -0.208863 52.6074 0.00217583 33.5972C0.20927 14.9977 15.266 0.0533163 34.0169 0H34.0149ZM38.9398 21.3996C38.6893 21.3996 38.494 21.3996 38.3008 21.3996C30.9716 21.3996 23.6405 21.3996 16.3113 21.4016C16.0667 21.4016 15.8163 21.4055 15.5756 21.4509C14.9445 21.5714 14.5974 22.0196 14.5678 22.6634C14.5421 23.1906 14.8064 23.5579 15.1555 23.9074C20.3171 29.0633 25.4767 34.2212 30.6245 39.3909C30.8059 39.5745 30.9519 39.8905 30.9519 40.1452C30.9716 44.4164 30.9657 48.6896 30.9657 52.9608C30.9657 53.1168 30.9657 53.2709 30.9657 53.3578C29.3089 53.5256 27.737 53.6362 26.1788 53.8574C25.0231 54.0193 23.887 54.3017 22.9423 55.0896C21.9009 55.9584 21.8831 57.2104 23.031 57.9193C23.7154 58.3419 24.5024 58.6874 25.2874 58.8395C26.7331 59.1179 28.2044 59.3114 29.6738 59.3924C32.8098 59.5661 35.9478 59.5425 39.0483 58.9323C40.0324 58.7388 40.9989 58.4584 41.7918 57.7909C42.6261 57.0879 42.6537 55.9861 41.847 55.2574C41.6419 55.0738 41.4012 54.9197 41.1567 54.7934C39.7879 54.0864 38.285 53.8988 36.784 53.7369C35.7111 53.6204 34.6322 53.569 33.5297 53.4861C33.5238 53.3894 33.51 53.2946 33.51 53.1998C33.51 49.0253 33.5041 44.8528 33.5218 40.6784C33.5218 40.469 33.6658 40.2143 33.8216 40.0603C37.1331 36.7507 40.4604 33.453 43.7739 30.1454C43.987 29.9322 44.1507 29.867 44.4485 29.9993C45.7837 30.5937 47.1979 30.7675 48.6397 30.645C54.1898 30.1691 57.9352 24.8612 56.4875 19.4407C55.5961 16.1035 53.3871 13.9491 50.0479 13.1059C46.6318 12.243 43.6872 13.2402 41.279 15.7796C39.8115 17.3278 39.0778 19.2156 38.9398 21.3996Z" fill="#303030"></path>
</svg>
