<?xml version="1.0" encoding="UTF-8"?>
<svg xmlns="http://www.w3.org/2000/svg" width="68" height="68" viewBox="0 0 68 68" fill="none">
  <path d="M34 0C15.2527 0 0 15.2527 0 34C0 52.7473 15.2527 68 34 68C52.7473 68 68 52.7473 68 34C68 15.2527 52.7484 0 34 0ZM54.4851 31.6785C54.0248 31.6785 53.6207 31.2822 53.6128 30.8242C53.5904 29.4973 53.1728 28.1951 52.0726 27.4519C48.743 25.2034 45.1384 27.6259 45.1384 30.8096C45.1384 31.2732 44.7298 31.6774 44.265 31.6774C43.8002 31.6774 43.3927 31.2732 43.3927 30.8096C43.3927 30.5772 43.3927 30.2853 43.3366 30.0541C42.8999 27.9436 41.0039 26.3652 38.7104 26.5976C36.5202 26.8199 34.9183 28.7923 34.9183 30.9937V50.4157H50.8872C51.8717 50.4157 52.6283 51.1667 52.6283 52.1546C52.6283 53.1425 51.8717 53.8935 50.8872 53.8935H46.6483L49.146 56.4451C49.494 56.7976 49.494 57.3174 49.146 57.6654C49.0304 57.8372 48.7935 57.8978 48.5612 57.8978C48.3288 57.8978 48.0964 57.7822 47.9247 57.6059L44.2661 53.8351H24.5219L20.8634 57.6059C20.6917 57.7822 20.4593 57.8978 20.2269 57.8978C20.0506 57.8978 19.8183 57.8372 19.642 57.6654C19.294 57.3174 19.294 56.7976 19.642 56.4451L22.1398 53.8935H17.7841C17.1476 53.8935 16.5672 53.5455 16.2754 53.0257L9.6588 41.5977C9.19404 40.7861 9.48255 39.6826 10.2953 39.2189C11.1081 38.7553 12.2127 39.0427 12.6775 39.8588L15.4637 44.6691C15.4637 44.6691 19.413 50.7412 27.6573 50.4718H33.1176V31.0072C33.1176 28.8282 31.5572 26.8614 29.394 26.6066C27.0803 26.3338 25.0754 27.9234 24.6993 30.0552C24.6387 30.2876 24.6387 30.5188 24.6387 30.8107C24.6387 31.2743 24.2346 31.6785 23.7698 31.6785C23.305 31.6785 22.9076 31.2856 22.8975 30.8298C22.8661 29.5018 22.444 28.1984 21.3439 27.453C18.0311 25.2045 14.4186 27.627 14.4186 30.8107C14.4186 31.2743 14.01 31.6785 13.5463 31.6785C13.0827 31.6785 12.6775 31.2743 12.6775 30.8107C12.6775 19.0942 22.2565 9.52184 34.046 9.52184C45.8355 9.52184 55.4146 19.0953 55.3585 30.8107C55.3585 31.2743 54.9498 31.6785 54.4862 31.6785H54.4851Z" fill="#303030"></path>
</svg>
