<?xml version="1.0" encoding="UTF-8"?>
<svg xmlns="http://www.w3.org/2000/svg" width="69" height="68" viewBox="0 0 69 68" fill="none">
  <path fill-rule="evenodd" clip-rule="evenodd" d="M34.0007 0C15.2522 0 0 15.2522 0 33.9993C0 52.7465 15.2522 68 34.0007 68C52.7491 68 68.0013 52.7478 68.0013 33.9993C68.0013 15.2509 52.7478 0 34.0007 0ZM50.2198 53.1496C46.3666 54.1718 41.0577 54.8055 35.2073 54.8055C29.357 54.8055 24.0468 54.1731 20.1949 53.1496C16.065 52.0535 13.512 50.4003 13.512 48.4493C13.512 46.4983 16.0663 44.8437 20.1949 43.7477C22.2499 43.2023 25.6724 42.7017 28.7247 42.3935V11.3529C28.7247 10.7917 29.1805 10.3359 29.7417 10.3359C30.1659 10.3359 30.5281 10.5967 30.6809 10.9669L45.4141 16.152H45.4168C45.7698 16.2745 45.9556 16.6618 45.8317 17.0148C45.754 17.2348 45.5748 17.3889 45.3667 17.4456L30.76 22.5872V42.2275C32.1985 42.1458 33.6792 42.0931 35.2087 42.0931C41.0603 42.0931 46.3679 42.7254 50.2211 43.7477C54.351 44.8437 56.904 46.497 56.904 48.4493C56.904 50.4016 54.3497 52.0535 50.2211 53.1496H50.2198Z" fill="#303030"></path>
  <path fill-rule="evenodd" clip-rule="evenodd" d="M32.4041 46.2572C31.8653 46.0083 31.1777 45.8331 30.4189 45.7659C29.639 45.8304 27.5774 46.0043 27.0267 46.2572C26.1388 46.6656 25.5908 47.3124 25.5908 48.1002C25.5908 48.888 26.1402 49.5348 27.0267 49.9432C27.7276 50.2659 28.6787 50.4662 29.7154 50.4662C30.7522 50.4662 31.7033 50.2659 32.4041 49.9432C33.2907 49.5348 33.84 48.888 33.84 48.1002C33.84 47.3124 33.2907 46.6669 32.4041 46.2572Z" fill="#303030"></path>
</svg>
