<?xml version="1.0" encoding="UTF-8"?>
<svg xmlns="http://www.w3.org/2000/svg" width="68" height="68" viewBox="0 0 68 68" fill="none">
  <g clip-path="url(#clip0_587_309)">
    <path d="M25.4296 33.082C25.0916 30.5804 24.766 28.1509 24.4304 25.7238C24.3882 25.4158 24.5497 25.3909 24.7859 25.3735C25.6508 25.3065 26.5133 25.2146 27.3808 25.1525C28.1264 25.0978 28.5689 24.7028 28.544 24.0693C28.5216 23.4632 28.0792 23.0657 27.3559 23.0906C26.0759 23.1378 24.7983 23.2322 23.5182 23.3017C21.8081 23.3961 20.2373 23.0583 18.9125 21.8783C18.3507 21.379 17.7418 21.4212 17.3317 21.9155C16.9315 22.3975 17.0036 22.9365 17.5479 23.4384C18.7584 24.5562 20.2099 25.1624 21.8305 25.3462C22.1984 25.3884 22.3053 25.53 22.3724 25.8604C22.5339 26.6281 22.4693 27.2615 21.8231 27.8478C21.0923 28.5111 20.4659 29.2936 19.8272 30.0513C19.5537 30.3742 19.3798 30.3693 19.0343 30.1258C16.6929 28.4689 14.1725 27.9894 11.4931 29.2116C9.10196 30.3022 7.6827 32.2747 6.90472 34.7067C5.72408 38.4081 6.17396 41.9605 8.07293 45.3391C8.12264 45.426 8.16987 45.5154 8.27675 45.7142C7.21293 45.3415 6.24605 45.0062 5.28413 44.6658C4.17557 44.2733 3.07695 43.8436 1.95348 43.4983C1.42406 43.3343 1.19787 43.0412 1.07359 42.5294C-0.750812 34.9129 -0.333237 27.4478 2.93031 20.2958C7.69513 9.85723 15.7285 3.13499 26.9657 0.814746C39.0927 -1.68933 49.7483 1.59975 58.4975 10.4385C63.9409 15.941 67.11 22.6509 67.8184 30.3593C68.9642 42.7928 64.6418 53.0575 54.8736 60.8504C48.4509 65.9753 40.9818 68.2757 32.7546 67.9726C24.5671 67.672 17.4137 64.7332 11.3042 59.3127C7.2179 55.6857 4.2054 51.2813 2.25423 46.1663C2.21943 46.0769 2.19955 45.9825 2.13741 45.7663C2.92533 46.0446 3.61632 46.2855 4.30482 46.5315C7.06877 47.5078 9.86005 48.4145 12.5867 49.4827C16.5686 51.0428 20.3541 49.2144 22.2779 45.6695C22.4867 45.2844 22.514 44.6484 22.9391 44.5739C23.2895 44.5143 23.7146 44.8894 24.1073 45.0732C24.5 45.2571 24.8902 45.4434 25.283 45.6322C26.0013 45.975 26.3418 45.9154 26.8538 45.3092C29.1604 42.5766 31.4621 39.839 33.7612 37.1039C35.5434 34.9849 37.3255 32.8634 39.1052 30.7419C39.1971 30.6326 39.2618 30.5034 39.4233 30.2575C39.7638 31.4101 40.0373 32.3715 40.3355 33.3255C40.4126 33.5714 40.2982 33.6534 40.1267 33.7577C36.1101 36.2196 34.4696 40.0179 34.1862 44.5168C33.9427 48.3946 34.9742 51.9495 37.2932 55.2833C36.5301 55.0175 35.9038 54.8039 35.2799 54.5828C33.2939 53.8797 31.3104 53.1742 29.327 52.4712C29.0759 52.3818 28.8249 52.26 28.5465 52.3097C28.0419 52.3992 27.7163 52.6973 27.6442 53.1991C27.5597 53.7729 27.863 54.1555 28.3825 54.3443C29.7396 54.8361 31.1066 55.3081 32.4662 55.7926C35.7919 56.975 39.1151 58.16 42.4433 59.3425C47.0689 60.987 51.6026 59.3698 54.1602 55.015C56.9614 50.2429 56.9291 45.262 54.8164 40.2614C53.5736 37.3176 51.5752 34.9948 48.6547 33.5689C46.8005 32.6622 44.8468 32.3541 42.8087 32.7665C42.4781 32.8336 42.3364 32.7814 42.2345 32.4361C41.1831 28.8092 40.1168 25.1872 39.048 21.5677C38.9511 21.2374 38.9883 21.1057 39.3885 21.0883C41.4118 21.0088 41.4118 20.9989 41.4118 18.9966C41.4118 18.1073 41.4018 17.2179 41.4143 16.3311C41.4242 15.6752 41.111 15.2827 40.4896 15.1163C39.9105 14.9623 39.3338 14.8033 38.7497 14.6642C38.1308 14.5151 37.579 14.8231 37.4324 15.3746C37.2882 15.9137 37.5815 16.4279 38.1507 16.649C38.531 16.7956 39.0952 16.7136 39.2692 17.0589C39.4457 17.4092 39.2966 17.911 39.3488 18.3383C39.4208 18.9246 39.1822 19.0711 38.6255 19.0463C37.6362 19.0016 36.642 19.019 35.6502 19.0413C35.2898 19.0488 35.0338 18.9395 34.7803 18.6836C33.5201 17.3993 32.2276 16.1472 30.9749 14.8579C30.5002 14.371 29.9981 14.2468 29.3518 14.4257C27.9599 14.8107 26.5506 15.1411 25.1587 15.5287C24.2838 15.7721 23.983 16.6391 24.5323 17.2428C24.8828 17.6303 25.3202 17.6353 25.79 17.5111C26.8886 17.2204 27.9947 16.962 29.0834 16.6391C29.5308 16.5074 29.8042 16.6143 30.1124 16.9322C31.2508 18.1023 32.4389 19.2276 33.5624 20.4126C34.0471 20.9243 34.569 21.1256 35.2575 21.1107C36.7489 21.0784 36.7638 21.0982 37.1565 22.5291C37.3305 23.1601 37.8276 23.8582 37.584 24.4072C37.3578 24.914 36.6246 25.2021 36.1051 25.5698C32.7496 27.9472 29.3916 30.3196 26.0336 32.6945C25.8546 32.8212 25.6633 32.933 25.4246 33.0845L25.4296 33.082Z" fill="#303030"></path>
    <path d="M41.0092 35.6556C41.4343 37.0964 41.8493 38.495 42.2595 39.8961C42.8908 42.0549 43.5147 44.2137 44.151 46.3724C44.3946 47.2022 45.0383 47.5475 45.6846 47.222C46.1867 46.9711 46.3507 46.4867 46.1444 45.7812C45.2049 42.5542 44.2603 39.3273 43.3158 36.1028C43.281 35.9835 43.2487 35.8643 43.2139 35.745C42.9281 34.7687 42.9281 34.7588 43.9745 34.6917C46.4998 34.5303 48.5902 35.5165 50.3102 37.2679C54.3915 41.4239 55.4056 48.2356 52.7162 53.353C51.5207 55.6261 49.7733 57.283 47.1486 57.7774C44.6928 58.2419 42.5677 57.4594 40.7308 55.8745C38.029 53.5418 36.6993 50.4863 36.3264 46.9985C36.0008 43.9603 36.5104 41.0712 38.1657 38.4478C38.8791 37.3151 39.7888 36.3711 41.0067 35.6556H41.0092ZM50.6184 47.1078C50.6159 47.9201 50.5314 48.725 50.3102 49.4976C49.6142 51.9395 48.3615 53.8598 45.6448 54.3989C45.0433 54.5181 44.6928 55.0448 44.7823 55.5714C44.8842 56.1552 45.3714 56.508 46.0176 56.4185C47.6357 56.19 49.0003 55.4398 50.0815 54.2399C52.3707 51.6986 52.9772 48.6678 52.5472 45.3639C52.4776 44.8198 51.9333 44.4422 51.4262 44.5068C50.8694 44.5764 50.4568 45.0533 50.4867 45.6297C50.5115 46.124 50.5712 46.6159 50.6134 47.1078H50.6184Z" fill="#303030"></path>
    <path d="M8.35645 38.4429C8.40864 36.2494 8.99523 34.0211 10.7575 32.2324C12.6739 30.2873 15.577 30.101 17.7544 31.743C18.0998 32.0039 17.9482 32.1256 17.7494 32.3467C16.089 34.185 14.4336 36.0283 12.7807 37.874C12.0326 38.7087 12.1718 39.3695 13.1983 39.8614C15.6168 41.0215 18.0278 42.1916 20.4611 43.3194C20.906 43.5256 20.9135 43.697 20.737 44.0945C19.5837 46.6979 17.4437 48.176 14.968 47.9351C12.8851 47.7338 11.4087 46.4967 10.2529 44.8497C8.95547 43.0014 8.39373 40.9147 8.35645 38.4404V38.4429ZM9.2587 39.0565C9.32084 39.5136 9.37304 40.1744 9.50478 40.8203C9.82293 42.3704 10.5263 43.7343 11.6324 44.8795C12.0202 45.2794 12.4701 45.4186 12.9746 45.1453C13.4295 44.8969 13.5687 44.477 13.4643 43.9802C13.3972 43.6597 13.1436 43.4585 12.9423 43.225C10.9116 40.8998 10.8296 37.3797 12.7509 35.0172C13.2306 34.426 13.2431 33.8447 12.7832 33.4273C12.3284 33.0125 11.7219 33.092 11.2099 33.6385C9.83038 35.1066 9.35067 36.9077 9.2587 39.059V39.0565Z" fill="#303030"></path>
    <path d="M26.6577 42.2711C26.3545 40.0502 26.0736 37.9461 25.7778 35.8419C25.7381 35.5587 25.8251 35.3873 26.0562 35.2234C30.0207 32.4287 33.9852 29.6314 37.9397 26.8193C38.3076 26.5585 38.3697 26.6777 38.5014 27.0255C38.7376 27.6416 38.663 28.0888 38.2057 28.6253C34.4674 33.0075 30.7713 37.4269 27.0629 41.8338C26.961 41.9556 26.8466 42.0698 26.6602 42.2711H26.6577Z" fill="#303030"></path>
    <path d="M19.5043 33.5193C20.5407 34.8881 21.105 36.396 21.4057 38.0157C21.5872 38.9969 21.5822 39.9857 21.535 40.9793C21.5176 41.3619 21.4306 41.4961 21.018 41.2924C19.1836 40.3956 17.3369 39.5261 15.4926 38.6516C15.249 38.5374 15.0476 38.4604 15.331 38.1498C16.7204 36.627 18.0949 35.0893 19.5067 33.5218L19.5043 33.5193Z" fill="#303030"></path>
    <path d="M22.8772 29.7805C23.4737 34.2446 24.0553 38.5895 24.6369 42.9468C24.5475 42.9368 24.5027 42.9393 24.4654 42.9244C23.4265 42.4971 23.4563 42.4996 23.5682 41.3743C23.8913 38.0877 23.1754 35.0594 21.2392 32.3566C21.0006 32.0238 20.9782 31.8275 21.274 31.5294C21.8059 30.9953 22.298 30.419 22.8772 29.7805Z" fill="#303030"></path>
  </g>
  <defs>
    <clipPath id="clip0_587_309">
      <rect width="68" height="68" fill="white"></rect>
    </clipPath>
  </defs>
</svg>
