<svg width="4492" height="2169" viewBox="0 0 4492 2169" fill="none" xmlns="http://www.w3.org/2000/svg">
<g clip-path="url(#clip0_2410_4376)">
<path d="M0 1619.13H198.697V1671.29H57.4264V1726.83H181.928V1778.99H57.4264V1879.95H0V1619.13Z" fill="white"/>
<path d="M274.298 1619.13H393.554C426.717 1619.13 452.057 1628.07 469.576 1645.59C484.471 1660.48 491.919 1680.24 491.919 1705.19V1705.94C491.919 1748.04 469.201 1774.5 435.991 1786.81L499.741 1879.95H432.665L376.738 1796.5H331.631V1879.95H274.204V1619.13H274.298ZM389.853 1745.84C418.192 1745.84 433.836 1731.32 433.836 1708.94V1708.19C433.836 1683.23 417.067 1670.92 388.729 1670.92H331.677V1745.79H389.806L389.853 1745.84Z" fill="white"/>
<path d="M562.039 1750.29V1749.54C562.039 1675.37 620.543 1614.63 701.062 1614.63C781.58 1614.63 839.335 1674.62 839.335 1748.79V1749.54C839.335 1823.71 780.831 1884.44 700.312 1884.44C619.793 1884.44 562.039 1824.46 562.039 1750.29ZM779.332 1750.29V1749.54C779.332 1704.82 746.544 1667.55 700.312 1667.55C654.081 1667.55 622.042 1704.07 622.042 1748.79V1749.54C622.042 1794.26 654.83 1831.53 701.062 1831.53C747.293 1831.53 779.332 1795.01 779.332 1750.29Z" fill="white"/>
<path d="M920.227 1619.13H982.104L1050.68 1729.4L1119.25 1619.13H1181.13V1879.95H1124.08V1709.64L1050.63 1821.04H1049.13L976.436 1710.77V1879.95H920.134V1619.13H920.227Z" fill="white"/>
<path d="M1255.7 1841.97L1289.61 1801.37C1313.45 1820.76 1337.72 1833.03 1367.51 1833.03C1391.35 1833.03 1405.17 1823.71 1405.17 1808.44V1807.69C1405.17 1793.18 1396.22 1785.36 1352.61 1774.54C1299.68 1761.48 1266.14 1746.21 1266.14 1694.8V1694.05C1266.14 1646.71 1303.8 1615.43 1357.48 1615.43C1395.89 1615.43 1427.56 1627.37 1454.4 1648.58L1424.56 1691.8C1401.09 1675.79 1379.08 1666.09 1356.73 1666.09C1334.39 1666.09 1323.2 1675.79 1323.2 1688.81V1689.55C1323.2 1707.07 1334.39 1711.89 1379.5 1723.83C1432.43 1737.97 1462.27 1756.61 1462.27 1802.08V1802.83C1462.27 1854.61 1422.73 1883.69 1366.48 1883.69C1326.62 1883.69 1287.08 1870.3 1255.79 1841.97H1255.7Z" fill="white"/>
<path d="M1541.94 1619.13H1599.37V1733.15L1704.48 1619.13H1774.93L1668.32 1729.78L1779.38 1879.95H1710.43L1629.53 1768.92L1599.32 1800.2V1879.95H1541.89V1619.13H1541.94Z" fill="white"/>
<path d="M1906.08 1777.12L1805.79 1619.13H1872.87L1935.12 1723.83L1998.49 1619.13H2063.74L1963.46 1775.99V1879.95H1906.08V1777.12Z" fill="white"/>
<path d="M2270.97 1619.13H2390.22C2423.39 1619.13 2448.73 1628.07 2466.24 1645.59C2481.14 1660.48 2488.63 1680.24 2488.63 1705.19V1705.94C2488.63 1748.04 2465.92 1774.5 2432.71 1786.81L2496.46 1879.95H2429.38L2373.45 1796.5H2328.35V1879.95H2270.92V1619.13H2270.97ZM2386.52 1745.84C2414.86 1745.84 2430.51 1731.32 2430.51 1708.94V1708.19C2430.51 1683.23 2413.74 1670.92 2385.4 1670.92H2328.35V1745.79H2386.48L2386.52 1745.84Z" fill="white"/>
<path d="M2570.28 1619.13H2767.1V1670.17H2627.33V1723.08H2750.33V1774.12H2627.33V1828.91H2768.97V1879.95H2570.28V1619.13Z" fill="white"/>
<path d="M2939.24 1617.3H2992.17L3103.98 1879.99H3043.97L3020.13 1821.51H2909.82L2885.98 1879.99H2827.48L2939.28 1617.3H2939.24ZM2999.62 1770.84L2964.95 1686.28L2930.29 1770.84H2999.62Z" fill="white"/>
<path d="M3174.05 1619.13H3231.48V1827.78H3361.55V1879.95H3174.05V1619.13Z" fill="white"/>
<path d="M3458.09 1672.04H3378.7V1619.13H3594.91V1672.04H3515.52V1879.95H3458.14V1672.04H3458.09Z" fill="white"/>
<path d="M3645.92 1750.29V1749.54C3645.92 1675.37 3704.42 1614.63 3784.94 1614.63C3865.46 1614.63 3923.22 1674.62 3923.22 1748.79V1749.54C3923.22 1823.71 3864.71 1884.44 3784.19 1884.44C3703.67 1884.44 3645.92 1824.46 3645.92 1750.29ZM3863.21 1750.29V1749.54C3863.21 1704.82 3830.42 1667.55 3784.19 1667.55C3737.96 1667.55 3705.92 1704.07 3705.92 1748.79V1749.54C3705.92 1794.26 3738.71 1831.53 3784.94 1831.53C3831.17 1831.53 3863.21 1795.01 3863.21 1750.29Z" fill="white"/>
<path d="M4004.11 1619.13H4123.37C4156.53 1619.13 4181.87 1628.07 4199.39 1645.59C4214.28 1660.48 4221.73 1680.24 4221.73 1705.19V1705.94C4221.73 1748.04 4199.01 1774.5 4165.8 1786.81L4229.55 1879.95H4162.48L4106.55 1796.5H4061.44V1879.95H4004.02V1619.13H4004.11ZM4119.66 1745.84C4148 1745.84 4163.65 1731.32 4163.65 1708.94V1708.19C4163.65 1683.23 4146.88 1670.92 4118.54 1670.92H4061.49V1745.79H4119.62L4119.66 1745.84Z" fill="white"/>
<path d="M4285.48 1841.97L4319.39 1801.37C4343.23 1820.76 4367.5 1833.03 4397.29 1833.03C4421.13 1833.03 4434.95 1823.71 4434.95 1808.44V1807.69C4434.95 1793.18 4426 1785.36 4382.39 1774.54C4329.46 1761.48 4295.93 1746.21 4295.93 1694.8V1694.05C4295.93 1646.71 4333.59 1615.43 4387.26 1615.43C4425.67 1615.43 4457.34 1627.37 4484.18 1648.58L4454.34 1691.8C4430.87 1675.79 4408.86 1666.09 4386.52 1666.09C4364.17 1666.09 4352.98 1675.79 4352.98 1688.81V1689.55C4352.98 1707.07 4364.17 1711.89 4409.28 1723.83C4462.21 1737.97 4492.05 1756.61 4492.05 1802.08V1802.83C4492.05 1854.61 4452.51 1883.69 4396.26 1883.69C4356.4 1883.69 4316.86 1870.3 4285.57 1841.97H4285.48Z" fill="white"/>
<path d="M1730.29 2085.09V2084.62C1730.29 2038.92 1765.04 2000.24 1814.46 2000.24C1842.66 2000.24 1860.41 2008.15 1877.18 2022.39L1859 2044.07C1846.4 2033.35 1833.8 2026.84 1813.29 2026.84C1783.45 2026.84 1760.36 2052.92 1760.36 2084.15V2084.62C1760.36 2118.19 1782.51 2142.87 1815.86 2142.87C1831.46 2142.87 1845.23 2137.95 1855.26 2130.51V2100.21H1813.52V2075.02H1882.99V2143.53C1866.69 2157.29 1843.83 2168.91 1814.93 2168.91C1763.87 2168.91 1730.29 2132.57 1730.29 2085V2085.09Z" fill="white"/>
<path d="M1966.92 2003.05H2039.67C2060.18 2003.05 2076.25 2009.09 2086.74 2019.35C2095.36 2028.43 2100.28 2040.32 2100.28 2054.56V2055.03C2100.28 2081.81 2084.21 2097.92 2061.59 2104.43L2105.67 2166.19H2071.61L2031.52 2109.34H1995.64V2166.19H1966.97V2003.05H1966.92ZM2037.56 2083.92C2058.08 2083.92 2071.14 2073.43 2071.14 2056.67V2056.2C2071.14 2038.5 2058.78 2029.18 2037.33 2029.18H1995.59V2083.97H2037.56V2083.92Z" fill="white"/>
<path d="M2174.85 2085.09V2084.62C2174.85 2038.92 2210.31 2000.24 2260.43 2000.24C2310.55 2000.24 2345.54 2038.22 2345.54 2084.15V2084.62C2345.54 2130.28 2310.08 2169 2259.96 2169C2209.84 2169 2174.85 2131.02 2174.85 2085.09ZM2315.42 2085.09V2084.62C2315.42 2052.92 2292.56 2026.84 2259.91 2026.84C2227.26 2026.84 2204.87 2052.5 2204.87 2084.15V2084.62C2204.87 2116.32 2227.73 2142.4 2260.38 2142.4C2293.03 2142.4 2315.42 2116.74 2315.42 2085.09Z" fill="white"/>
<path d="M2424.32 2096.98V2003.05H2452.99V2095.81C2452.99 2126.34 2468.4 2142.22 2494.26 2142.22C2520.11 2142.22 2535.29 2127.04 2535.29 2096.98V2003.05H2563.95V2095.58C2563.95 2144.28 2536.46 2168.77 2493.79 2168.77C2451.12 2168.77 2424.32 2144.28 2424.32 2096.98Z" fill="white"/>
<path d="M2650 2003.05H2714.36C2752.58 2003.05 2776.38 2024.73 2776.38 2057.6V2058.07C2776.38 2094.41 2747.24 2113.79 2711.08 2113.79H2678.67V2166.24H2650V2003.1V2003.05ZM2712.02 2087.9C2733.7 2087.9 2747.24 2075.77 2747.24 2058.77V2058.3C2747.24 2038.97 2733.47 2029.18 2712.02 2029.18H2678.67V2087.9H2712.02Z" fill="white"/>
<path d="M2715.67 743.822C2715.67 743.822 2908.89 1131.54 3077.09 1294.68C3245.29 1457.82 3453.41 1413.14 3453.41 1413.14C3448.82 1413.89 3438.79 1408.27 3434.34 1406.64C3318.18 1364.59 3232.27 1271.64 3159.72 1175.04C2979.15 934.588 2867.01 651.529 2706.58 398.344C2642.46 297.201 2572.06 199.242 2486.95 114.956C2451.58 79.931 2413.22 47.0127 2368.58 25.0048C2331.95 6.97699 2295.18 -1.17064 2255.74 0.140476V0H1552.01V0.327778C1520.11 1.96667 1489.71 10.0675 1459.45 25.0048C1414.82 46.9659 1376.45 79.931 1341.09 114.956C1255.98 199.242 1185.58 297.201 1121.45 398.344C961.026 651.529 848.889 934.588 668.32 1175.04C595.764 1271.64 509.858 1364.59 393.694 1406.64C389.291 1408.23 379.22 1413.89 374.63 1413.14C374.63 1413.14 582.742 1457.82 750.946 1294.68C919.15 1131.54 1112.37 743.822 1112.37 743.822C1112.37 743.822 1447.46 69.0675 1650.47 35.6341C1661.52 37.4603 1673 41.1595 1684.76 46.5913C1655.39 66.2111 1628.69 90.0453 1603.49 114.956C1518.38 199.242 1447.98 297.201 1383.85 398.344C1223.43 651.529 1111.29 934.588 930.72 1175.04C858.164 1271.64 772.259 1364.59 656.094 1406.64C651.691 1408.23 641.62 1413.89 637.03 1413.14C637.03 1413.14 845.142 1457.82 1013.35 1294.68C1181.55 1131.54 1374.77 743.822 1374.77 743.822C1374.77 743.822 1591.26 307.83 1781.67 119.405C1795.16 132.75 1808.74 147.36 1822.42 162.906C1757.22 235.485 1700.73 315.837 1648.46 398.344C1488.03 651.529 1375.89 934.588 1195.32 1175.04C1122.77 1271.64 1036.86 1364.59 920.696 1406.64C916.293 1408.23 906.222 1413.89 901.632 1413.14C901.632 1413.14 1109.74 1457.82 1277.95 1294.68C1446.15 1131.54 1639.37 743.822 1639.37 743.822C1639.37 743.822 1767.9 485.018 1913.99 280.016C2060.09 485.018 2188.62 743.822 2188.62 743.822C2188.62 743.822 2381.84 1131.54 2550.04 1294.68C2718.25 1457.82 2926.36 1413.14 2926.36 1413.14C2921.77 1413.89 2911.74 1408.27 2907.29 1406.64C2791.13 1364.59 2705.22 1271.64 2632.67 1175.04C2452.1 934.588 2339.96 651.529 2179.53 398.344C2127.26 315.837 2070.77 235.485 2005.57 162.906C2019.25 147.313 2032.83 132.75 2046.32 119.405C2236.73 307.877 2453.22 743.822 2453.22 743.822C2453.22 743.822 2646.44 1131.54 2814.64 1294.68C2982.85 1457.82 3190.96 1413.14 3190.96 1413.14C3186.37 1413.89 3176.34 1408.27 3171.9 1406.64C3055.73 1364.59 2969.83 1271.64 2897.27 1175.04C2716.7 934.588 2604.56 651.529 2444.13 398.344C2380.01 297.201 2309.61 199.242 2224.5 114.956C2199.35 90.0453 2172.65 66.2111 2143.23 46.5913C2154.99 41.1595 2166.46 37.4603 2177.52 35.6341C2380.53 69.0675 2715.62 743.822 2715.62 743.822H2715.67ZM1914.09 73.0008C1902.71 63.5889 1890.95 54.7389 1878.72 46.5913C1890.86 41.0191 1902.66 37.2262 1914.09 35.4468C1925.47 37.1794 1937.27 40.9722 1949.45 46.5913C1937.23 54.7389 1925.47 63.6357 1914.09 73.0008Z" fill="white"/>
<path d="M3552.29 867.301C3552.29 867.301 3712.53 1188.85 3852.02 1324.13C3991.51 1459.41 4164.12 1422.42 4164.12 1422.42C4160.32 1423.07 4151.99 1418.34 4148.33 1417.03C4051.98 1382.15 3980.74 1305.07 3920.55 1224.95C3770.8 1025.52 3677.82 790.788 3544.75 580.776C3491.58 496.865 3433.17 415.623 3362.58 345.713C3333.26 316.681 3301.46 289.335 3264.41 271.12C3234.05 256.182 3203.51 249.393 3170.82 250.516V250.376H2587.19V250.657C2560.72 252.015 2535.52 258.758 2510.41 271.12C2473.36 289.335 2441.56 316.681 2412.24 345.713C2341.65 415.623 2283.29 496.865 2230.07 580.776C2097 790.741 2004.02 1025.52 1854.27 1224.95C1794.08 1305.07 1722.84 1382.19 1626.49 1417.03C1622.83 1418.34 1614.5 1423.02 1610.7 1422.42C1610.7 1422.42 1783.31 1459.46 1922.8 1324.13C2062.29 1188.85 2222.53 867.301 2222.53 867.301C2222.53 867.301 2500.44 307.69 2668.83 279.923C2678.01 281.421 2687.52 284.512 2697.26 289.007C2672.9 305.255 2650.75 325.063 2629.86 345.713C2559.27 415.623 2500.91 496.865 2447.7 580.776C2314.62 790.741 2221.64 1025.52 2071.89 1224.95C2011.7 1305.07 1940.46 1382.19 1844.11 1417.03C1840.46 1418.34 1832.12 1423.02 1828.32 1422.42C1828.32 1422.42 2000.93 1459.46 2140.42 1324.13C2279.91 1188.85 2440.15 867.301 2440.15 867.301C2440.15 867.301 2619.69 505.715 2777.64 349.412C2788.83 360.463 2800.12 372.59 2811.41 385.514C2757.31 445.685 2710.47 512.364 2667.1 580.776C2534.02 790.741 2441.04 1025.52 2291.3 1224.95C2231.11 1305.07 2159.86 1382.19 2063.51 1417.03C2059.86 1418.34 2051.52 1423.02 2047.72 1422.42C2047.72 1422.42 2220.33 1459.46 2359.82 1324.13C2499.31 1188.85 2659.55 867.301 2659.55 867.301C2659.55 867.301 2766.16 652.653 2887.29 482.63C3008.47 652.653 3115.03 867.301 3115.03 867.301C3115.03 867.301 3275.27 1188.85 3414.76 1324.13C3554.25 1459.41 3726.86 1422.42 3726.86 1422.42C3723.07 1423.07 3714.73 1418.34 3711.08 1417.03C3614.73 1382.15 3543.48 1305.07 3483.29 1224.95C3333.54 1025.52 3240.56 790.788 3107.49 580.776C3064.12 512.364 3017.28 445.685 2963.17 385.514C2974.51 372.59 2985.8 360.509 2996.95 349.412C3154.85 505.715 3334.43 867.301 3334.43 867.301C3334.43 867.301 3494.67 1188.85 3634.16 1324.13C3773.66 1459.41 3946.26 1422.42 3946.26 1422.42C3942.47 1423.07 3934.13 1418.34 3930.48 1417.03C3834.13 1382.15 3762.88 1305.07 3702.69 1224.95C3552.94 1025.52 3459.96 790.788 3326.89 580.776C3273.73 496.865 3215.32 415.623 3144.73 345.713C3123.84 325.063 3101.73 305.255 3077.32 289.007C3087.07 284.512 3096.58 281.421 3105.76 279.923C3274.15 307.643 3552.05 867.301 3552.05 867.301H3552.29ZM2887.43 310.921C2878.02 303.148 2868.28 295.75 2858.11 289.007C2868.18 284.371 2877.97 281.234 2887.43 279.782C2896.9 281.234 2906.69 284.371 2916.76 289.007C2906.64 295.75 2896.9 303.148 2887.43 310.921Z" fill="url(#paint0_linear_2410_4376)"/>
</g>
<defs>
<linearGradient id="paint0_linear_2410_4376" x1="1610.75" y1="838.737" x2="4164.12" y2="838.737" gradientUnits="userSpaceOnUse">
<stop stop-color="#AD9873"/>
<stop offset="1" stop-color="#E8D69C"/>
</linearGradient>
<clipPath id="clip0_2410_4376">
<rect width="4492" height="2169" fill="white"/>
</clipPath>
</defs>
</svg>
