<?xml version="1.0" encoding="UTF-8"?>
<svg xmlns="http://www.w3.org/2000/svg" width="68" height="68" viewBox="0 0 68 68" fill="none">
  <g clip-path="url(#clip0_564_200)">
    <path d="M33.8204 19.6558C26.6917 27.6543 27.1188 36.4608 34.2197 43.9393C40.9151 36.6031 41.2772 28.2053 33.8204 19.6558Z" fill="#303030"></path>
    <path d="M11.1187 36.5845C12.9821 42.0263 16.127 45.8181 20.1387 47.6166C24.1256 49.4026 28.2456 49.2974 32.4368 48.4461C29.1401 37.9775 21.188 34.588 11.1187 36.5814V36.5845Z" fill="#303030"></path>
    <path d="M42.5527 38.5101C38.9187 40.8534 36.95 44.3914 35.5447 48.3443C38.8691 49.3224 44.4718 49.4555 48.4649 47.3413C52.8759 45.0074 55.2284 41.0917 56.934 36.5476C51.8668 35.7057 47.0008 35.6438 42.5527 38.5132V38.5101Z" fill="#303030"></path>
    <path d="M34 0C15.2232 0 0 15.2232 0 34C0 52.7768 15.2232 68 34 68C52.7768 68 68 52.7768 68 34C68 15.2232 52.7768 0 34 0ZM50.3004 48.9601C46.9574 50.9381 43.2893 51.5448 39.4727 51.2817C37.8166 51.1672 36.1792 50.7771 34.5231 50.6162C33.8298 50.5481 33.1023 50.709 32.4028 50.8359C28.614 51.5138 24.8438 51.6315 21.12 50.4645C16.6193 49.0499 13.3505 46.1093 11.1001 42.0605C10.0725 40.2125 9.32957 38.2005 8.51548 36.238C8.14712 35.3527 8.50619 34.6965 9.47196 34.5479C11.5737 34.2229 13.691 33.9969 15.8021 33.7369C16.0528 33.7059 16.3097 33.7338 16.5666 33.7338C16.3562 32.0406 16.093 30.4743 15.9785 28.8957C15.7959 26.4193 16.158 23.9771 16.6471 21.5564C16.8267 20.6712 17.4767 20.3369 18.4022 20.6309C21.6772 21.6772 24.7664 23.098 27.5615 25.2864C27.7101 24.9552 27.8401 24.6642 27.9732 24.3733C29.1774 21.7298 30.8396 19.3958 32.7773 17.2476C33.4924 16.4583 34.1269 16.4614 34.8481 17.2569C37.0118 19.6497 38.8784 22.2467 40.2063 25.274C40.7851 24.8685 41.3145 24.4692 41.8685 24.1071C44.2241 22.5625 46.7841 21.4512 49.4647 20.6C50.3531 20.3183 50.935 20.6866 51.1393 21.6493C51.9534 25.5093 52.1948 29.3755 51.1733 33.2447C51.1424 33.3654 51.1207 33.4862 51.0836 33.6502C52.427 33.74 53.7302 33.7802 55.0178 33.9319C56.2374 34.0743 57.4539 34.2972 58.655 34.5541C59.4412 34.7212 59.8003 35.3125 59.5557 36.0554C57.8192 41.3176 55.2748 46.0195 50.3035 48.9601H50.3004Z" fill="#303030"></path>
  </g>
  <defs>
    <clipPath id="clip0_564_200">
      <rect width="68" height="68" fill="white"></rect>
    </clipPath>
  </defs>
</svg>
